<svg width="24" height="24" viewBox="0 0 24 24" fill="none" xmlns="http://www.w3.org/2000/svg">
    <path fill-rule="evenodd" clip-rule="evenodd"
        d="M17.293 8.29296C17.3852 8.19745 17.4956 8.12127 17.6176 8.06886C17.7396 8.01645 17.8708 7.98886 18.0036 7.98771C18.1364 7.98655 18.2681 8.01186 18.391 8.06214C18.5138 8.11242 18.6255 8.18667 18.7194 8.28056C18.8133 8.37446 18.8875 8.48611 18.9378 8.60901C18.9881 8.7319 19.0134 8.86358 19.0123 8.99636C19.0111 9.12914 18.9835 9.26036 18.9311 9.38236C18.8787 9.50437 18.8025 9.61471 18.707 9.70696L12.707 15.707C12.5248 15.8892 12.2792 15.9941 12.0215 15.9997C11.7638 16.0053 11.514 15.9111 11.324 15.737L5.324 10.237C5.12854 10.0577 5.0123 9.80808 5.00086 9.54309C4.99519 9.41188 5.01543 9.28084 5.06041 9.15745C5.10538 9.03407 5.17423 8.92074 5.263 8.82396C5.35177 8.72718 5.45874 8.64882 5.57779 8.59338C5.69685 8.53793 5.82566 8.50648 5.95687 8.50082C6.22186 8.48938 6.48054 8.58367 6.676 8.76296L11.97 13.616L17.293 8.29296Z"
        fill="black" />
</svg>